<?xml version="1.0" encoding="utf-8"?>
<!-- Generator: Adobe Illustrator 28.0.0, SVG Export Plug-In . SVG Version: 6.00 Build 0)  -->
<svg version="1.1" id="Layer_1" xmlns="http://www.w3.org/2000/svg" xmlns:xlink="http://www.w3.org/1999/xlink" x="0px" y="0px"
	 viewBox="0 0 1000 1000" style="enable-background:new 0 0 1000 1000;" xml:space="preserve">
<style type="text/css">
	.st0{opacity:0.5;fill:#478ECC;}
	.st1{fill:#478ECC;}
	.st2{opacity:0.25;}
	.st3{fill:#FFFFFF;}
	.st4{fill:#444545;}
	.st5{fill:none;stroke:#444545;stroke-width:20;stroke-miterlimit:10;}
	.st6{fill:none;stroke:#FFFFFF;stroke-width:20;stroke-miterlimit:10;}
	.st7{fill:none;stroke:#EA3428;stroke-width:20;stroke-miterlimit:10;}
	.st8{opacity:0.1;fill:none;stroke:#171717;stroke-width:27.5447;stroke-miterlimit:10;}
	.st9{fill:none;stroke:#F1D41B;stroke-width:27.5447;stroke-miterlimit:10;}
</style>
<path class="st0" d="M795.28,652.99c-9.85,19.13-20.72,37.96-32.68,55.99c-37.46,56.51-85.62,105.03-146.85,129.18
	c-34.9,13.77-74.07,19.61-117.92,14.5c-27.08-3.15-51.94-8.11-74.74-14.5c-95.36-26.75-154.93-78.86-192.06-131.33v-0.01
	c-9.94-1.76-19.73-4.09-29.27-6.97v-43.19c29.09-3.67,57.39-12.74,82.61-27.22h0.08v0.03c67.54,38.77,157.18,38.77,224.71,0h0.08
	c67.54,38.74,157.19,38.77,224.71,0C752.99,640.38,773.75,648.22,795.28,652.99z"/>
<path class="st0" d="M759.29,711.12c-37.01,55.83-84.58,103.75-145.06,127.61c-34.47,13.6-73.17,19.37-116.49,14.33
	c-26.75-3.12-51.31-8.01-73.83-14.33c-94.2-26.43-153.04-77.9-189.72-129.73c53.51,9.53,111.51,2.74,158.63-20.36h0.08
	c66.72,32.69,155.27,32.71,221.99,0C657.84,709.7,709.87,717.21,759.29,711.12z"/>
<path class="st0" d="M826.67,587.98c-8.48,20.84-18.04,42.04-28.8,62.91c-9.94,19.29-20.89,38.28-32.95,56.46
	c-37.78,56.99-86.34,105.91-148.08,130.26H422.55c-96.16-26.98-156.23-79.52-193.67-132.43v-0.01c-10.02-1.78-19.89-4.12-29.51-7.02
	V654.9c-11.88-24.73-19.36-47.6-24.05-65.67c66.02,25.84,145.4,21.63,207.06-12.65h0.09c70.33,39.05,163.66,39.08,233.98,0
	C679.1,611.4,760.03,615.2,826.67,587.98z"/>
<g>
	<path class="st1" d="M-1089.84,124.97l12.4,12.67"/>
</g>
<g class="st2">
	<g>
		<line class="st3" x1="380.01" y1="459.41" x2="274.43" y2="694.55"/>
		<line class="st3" x1="380.01" y1="459.41" x2="274.43" y2="694.55"/>
		<line class="st3" x1="380.01" y1="459.41" x2="274.43" y2="694.55"/>
		<line class="st3" x1="380.01" y1="459.41" x2="274.43" y2="694.55"/>
		<line class="st3" x1="380.01" y1="459.41" x2="274.43" y2="694.55"/>
		<line class="st3" x1="380.01" y1="459.41" x2="274.43" y2="694.55"/>
		<line class="st3" x1="380.01" y1="459.41" x2="274.43" y2="694.55"/>
		<line class="st3" x1="380.01" y1="459.41" x2="274.43" y2="694.55"/>
		<polygon class="st4" points="741.64,336.38 635.34,573.15 584.27,459.41 533.21,573.15 482.14,459.41 431.07,573.15 
			380.01,459.41 274.43,694.55 261.21,694.55 253.97,691.3 380.01,410.59 431.07,524.32 482.14,410.58 533.21,524.32 584.27,410.59 
			635.34,524.32 723.4,328.19 		"/>
	</g>
	<line class="st5" x1="272.38" y1="684.85" x2="193.4" y2="684.85"/>
	<line class="st5" x1="795.28" y1="332.95" x2="723.29" y2="332.95"/>
</g>
<g class="st2">
	<g>
		<path class="st3" d="M-62.24,479.43"/>
	</g>
	<path class="st6" d="M-8.6,476"/>
</g>
<g>
	<polyline class="st7" points="354.47,477.87 263.09,681.4 380.01,421 431.07,534.74 482.14,421 533.21,534.74 584.27,421 
		635.34,534.74 732.52,318.29 	"/>
	<line class="st7" x1="272.38" y1="675.85" x2="193.4" y2="675.85"/>
	<line class="st7" x1="795.28" y1="323.95" x2="723.29" y2="323.95"/>
</g>
<circle class="st8" cx="499.91" cy="509.84" r="348.3"/>
<circle class="st9" cx="499.91" cy="499.84" r="348.3"/>
</svg>
